<svg width="18" height="13" viewBox="0 0 18 13" fill="none" xmlns="http://www.w3.org/2000/svg">
<path d="M0.038894 8.18429L0.0396153 8.09823C0.0642501 5.15905 1.60305 3.75629 5.02541 3.54244C5.38337 3.51921 5.70454 3.72074 5.73711 3.99908C5.7698 4.26419 5.49721 4.51329 5.13925 4.53651C2.3979 4.70359 1.36883 5.67404 1.34835 8.11674L1.34763 8.2028C1.32505 10.897 2.5735 11.8617 6.12469 11.894L11.8136 11.9457C15.3648 11.9779 16.6292 11.0361 16.6518 8.34186L16.6525 8.2558C16.6731 5.79987 15.643 4.8107 12.8524 4.6066C12.495 4.57025 12.2264 4.3361 12.2636 4.05839C12.2922 3.78059 12.6167 3.58493 12.9742 3.60804C16.445 3.86467 17.9862 5.30204 17.9614 8.26108L17.9607 8.34713C17.9334 11.5974 16.0894 12.9709 11.8053 12.932L6.11643 12.8803C1.83231 12.8414 0.0116515 11.4346 0.038894 8.18429Z" fill="#BFBFBF"/>
<path d="M8.3706 0.494907L8.30766 8.00467C8.30539 8.27523 8.60582 8.50235 8.97036 8.50566C9.3349 8.50897 9.63909 8.28735 9.64136 8.01679L9.7043 0.507025C9.70657 0.236462 9.40614 0.00934563 9.0416 0.00603322C8.67706 0.00272082 8.37287 0.224344 8.3706 0.494907Z" fill="#BFBFBF"/>
<path d="M5.38525 6.59938C5.38428 6.71445 5.44482 6.83008 5.57584 6.92213L8.50199 8.97781C8.7553 9.15577 9.177 9.1596 9.43326 8.98628L12.3934 6.98408C12.6497 6.81075 12.6521 6.52004 12.3988 6.34208C12.1455 6.16413 11.7238 6.1603 11.4675 6.33362L8.9757 8.01905L6.51249 6.2886C6.25918 6.11064 5.83747 6.10681 5.58122 6.28014C5.44873 6.36373 5.38621 6.4843 5.38525 6.59938Z" fill="#BFBFBF"/>
</svg>
